<svg xmlns="http://www.w3.org/2000/svg" width="15" height="15" viewBox="0 0 15 15">
    <path fill="#000" fill-opacity=".5" fill-rule="evenodd" d="M12.181 11.869h-2.018V8.313c0-.827-.292-1.391-1.022-1.391-.558 0-.89.38-1.036.748-.053.13-.066.315-.066.498v3.7H6.021V7.5c0-.8-.027-1.47-.053-2.047H7.72l.093.892h.04c.266-.42.916-1.036 2.005-1.036 1.328 0 2.323.88 2.323 2.769v3.792zm-8.39-7.204c-.637 0-1.049-.446-1.049-.997 0-.565.425-.998 1.075-.998.65 0 1.05.433 1.062.998 0 .55-.411.997-1.088.997zm-.996 7.204h2.018V5.452H2.795v6.417zM13.488 0H1.512C.677 0 0 .671 0 1.5v12C0 14.33.677 15 1.512 15h11.976c.835 0 1.512-.671 1.512-1.5v-12C15 .67 14.323 0 13.488 0z"/>
</svg>
